<?xml version="1.0" encoding="iso-8859-1"?>
<svg version="1.1" id="astronomy" xmlns="http://www.w3.org/2000/svg" xmlns:xlink="http://www.w3.org/1999/xlink" x="0px" y="0px"
	 viewBox="0 0 600 450" style="enable-background:new 0 0 600 450;" xml:space="preserve">
<g id="row3">
	<path id="icon:4_1_" style="fill:#e7c296;" d="M511.255,361.121v-17.5h23.76v-16.17h-23.76v-1.2c0-0.552-0.448-1-1-1l0,0
		c-0.552,0-1,0.448-1,1v34.87c-16.22,0.52-29.25,13.88-29.25,30.22v1.5h60.5v-1.5C540.505,375.001,527.475,361.641,511.255,361.121z
		 M483.045,389.841c0.78-14.33,12.69-25.75,27.21-25.75s26.43,11.42,27.21,25.75H483.045z M521.255,373.611
		c0,1.853-2.099,3.355-4.688,3.355s-4.688-1.502-4.688-3.355s2.099-3.355,4.688-3.355S521.255,371.758,521.255,373.611z
		 M526.318,382.881c-2.175,0-3.938,1.091-3.938,2.438s1.763,2.438,3.938,2.438s3.938-1.091,3.938-2.438
		S528.492,382.881,526.318,382.881z M492.343,378.764c-2.342,2.393-3.301,5.252-2.141,6.387c1.159,1.135,3.998,0.115,6.34-2.278
		s3.301-5.252,2.141-6.387C497.524,375.351,494.685,376.371,492.343,378.764z"/>
	<path id="icon:3" style="fill:#e7c296;" d="M403.272,362.19c4.853,9.06,0.858,33.784-32.783,33.784
		c-25.114,0-35.669-30.472-35.922-31.461c0.414,0.736,13.96,24.412,37.061,24.412c27.057,0,27.632-19.146,23.665-26.62
		c-3.967-7.486-11.66-12.982-23.711-10.13c-0.126,0.035-0.253,0.057-0.368,0.092c0.828-0.092,1.679-0.138,2.541-0.138
		c9.739,0,17.674,5.841,17.938,13.12c1.368,5.968-2.231,14.316-13.212,16.926c-15.753,3.737-28.816-3.45-33.991-13.224
		c-5.186-9.774-1.874-33.784,30.622-33.784c29.644,0,38.969,30.472,39.222,31.461c-0.425-0.736-14.236-24.424-38.211-24.424
		c-27.057,0-27.632,19.146-23.665,26.631c3.128,5.91,8.578,9.855,16.65,9.855c-7.67-1.541-13.316-6.796-13.316-13.051
		c-0.356-7.578,3.266-14.247,13.488-16.673C385.023,345.23,398.047,352.437,403.272,362.19z"/>
	<path id="icon:3_2_" style="display:none;fill:#e7c296;" d="M414,363.518c-0.418,1.116-0.797,2.231-1.165,3.337
		c-0.887,2.61-1.793,5.3-3.187,7.74l-0.05,0.09c-4.851,7.262-10.698,11.367-18.417,12.911c-1.534,0.259-3.167,0.379-4.801,0.379
		c-1.614,0-3.217-0.12-4.711-0.369c-6.952-1.604-11.315-4.323-14.672-9.115c-2.998-4.503-3.695-9.235-2.082-14.076
		c0.538-1.614,1.554-3.138,2.54-4.612l0.12-0.149c3.586-4.104,8.048-5.081,12.251-2.68l0.169,0.1l0.139,0.139
		c0.608,0.608,1.853,1.863,1.853,3.427c0,0.418-0.06,0.837-0.139,1.255c0.209,0.04,0.398,0.06,0.558,0.06
		c0.12-0.01,0.428-0.13,1.135-0.817c0.359-0.727,0.677-1.405,0.677-1.943c0-1.365,0-2.112-0.398-3.307
		c-0.349-1.056-1.076-2.231-1.902-3.088c-1.295-0.867-2.53-1.674-4.124-2.072c-1.663-0.408-3.835-0.428-5.618-0.428
		c-2.072,0.438-3.755,1.285-5.926,2.58c-1.733,1.315-3.476,3.058-4.791,4.792c-1.295,2.182-2.211,4.911-3.088,7.551
		c-1.863,11.187,4.223,24.427,22.042,28.88L379.686,397c-13.765-3.437-27.222-15.042-24.244-32.396l0.06-0.209
		c0.946-2.869,1.932-5.828,3.436-8.328l0.09-0.129c1.494-1.992,3.496-3.995,5.488-5.489l0.129-0.09
		c2.47-1.484,4.512-2.5,7.082-3.018l0.289-0.03c1.982,0,4.442,0,6.504,0.518c2.142,0.538,3.695,1.574,5.189,2.57l0.229,0.189
		c1.185,1.185,2.201,2.819,2.719,4.363c0.548,1.644,0.548,2.789,0.548,4.244c0,1.295-0.588,2.471-1.106,3.497l-0.1,0.219
		l-0.179,0.169c-0.598,0.608-1.853,1.863-3.416,1.863c-0.428,0-0.867-0.06-1.295-0.149c-0.04,0.209-0.06,0.398-0.06,0.558
		c0,0.12,0.12,0.428,0.807,1.136c0.727,0.369,1.404,0.677,1.942,0.677c1.365,0,2.122,0,3.307-0.389
		c1.056-0.359,2.231-1.076,3.088-1.903c0.867-1.305,1.673-2.54,2.072-4.134c0.418-1.654,0.428-3.835,0.428-5.618
		c-0.438-2.072-1.285-3.756-2.58-5.927c-1.315-1.733-3.048-3.477-4.791-4.782c-2.171-1.295-4.781-2.172-7.55-3.098
		c-11.186-1.863-24.423,4.224-28.875,22.046L346,362.631c3.436-13.757,15.03-27.216,32.391-24.247l0.219,0.06
		c2.859,0.956,5.817,1.943,8.317,3.437l0.129,0.09c1.992,1.494,3.994,3.497,5.498,5.489l0.08,0.13
		c1.484,2.471,2.5,4.513,3.018,7.083l0.03,0.299c0,1.972,0,4.433-0.518,6.495c-0.538,2.142-1.574,3.696-2.57,5.19l-0.179,0.229
		c-1.195,1.195-2.829,2.212-4.363,2.72c-1.643,0.548-2.799,0.548-4.253,0.548c-1.295,0-2.46-0.578-3.496-1.096l-0.219-0.11
		l-0.169-0.169c-0.608-0.608-1.853-1.853-1.853-3.427c0-0.428,0.06-0.867,0.149-1.295c-0.199-0.04-0.379-0.06-0.528-0.06
		c-0.12,0.01-0.428,0.13-1.155,0.837c-1.544,2.849-0.827,5.708,2.072,8.288c1.285,0.857,2.6,1.723,3.805,2.132
		c3.984,1.325,7.729,0.757,11.445-1.723c4.163-2.909,6.454-6.615,7.869-12.781c0.428-2.56,0.428-5.738-0.01-8.388
		c-1.375-6.834-5.06-12.074-11.594-16.447c-2.171-1.235-4.602-2.052-7.162-2.919c-1.135-0.379-2.281-0.767-3.426-1.205l1.046-2.789
		c1.116,0.418,2.231,0.787,3.337,1.166c2.6,0.877,5.299,1.783,7.739,3.178l0.08,0.06c7.271,4.842,11.375,10.689,12.919,18.42
		c0.508,3.048,0.508,6.505,0.01,9.504c-1.604,6.963-4.323,11.317-9.114,14.674c-4.512,3.009-9.233,3.696-14.084,2.082
		c-1.604-0.538-3.128-1.554-4.602-2.53l-0.149-0.12c-4.104-3.586-5.08-8.059-2.679-12.253l0.1-0.179l0.139-0.139
		c0.608-0.598,1.853-1.853,3.416-1.853c0.418,0,0.837,0.06,1.255,0.139c0.04-0.189,0.06-0.359,0.06-0.508
		c0-0.13-0.129-0.438-0.837-1.166c-2.849-1.534-5.707-0.827-8.277,2.072c-0.857,1.285-1.733,2.61-2.132,3.815
		c-1.325,3.975-0.767,7.72,1.713,11.446c2.908,4.154,6.624,6.445,12.779,7.87c2.57,0.428,5.737,0.428,8.397-0.02
		c6.823-1.365,12.072-5.051,16.435-11.586c1.235-2.182,2.052-4.602,2.918-7.173c0.388-1.136,0.777-2.281,1.205-3.427L414,363.518z"
		/>
	<path id="icon:2" style="fill:#e7c296;" d="M228.255,398.048c-18.472,0-33.5-14.879-33.5-33.167s15.028-33.167,33.5-33.167
		s33.5,14.879,33.5,33.167S246.727,398.048,228.255,398.048z M228.255,334.714c-16.818,0-30.5,13.533-30.5,30.167
		s13.682,30.167,30.5,30.167s30.5-13.533,30.5-30.167S245.073,334.714,228.255,334.714z M223.255,379.881c0,2.761-2.239,5-5,5
		s-5-2.239-5-5c0-2.761,2.239-5,5-5S223.255,377.12,223.255,379.881z M208.255,350.881c-2.761,0-5,2.239-5,5c0,2.761,2.239,5,5,5
		s5-2.239,5-5C213.255,353.12,211.016,350.881,208.255,350.881z M229.255,340.881c-2.761,0-5,2.239-5,5c0,2.761,2.239,5,5,5
		s5-2.239,5-5C234.255,343.12,232.016,340.881,229.255,340.881z M226.255,357.881c-2.761,0-5,2.239-5,5c0,2.761,2.239,5,5,5
		s5-2.239,5-5C231.255,360.12,229.016,357.881,226.255,357.881z M235.255,373.381c-4.142,0-7.5,3.358-7.5,7.5
		c0,4.142,3.358,7.5,7.5,7.5s7.5-3.358,7.5-7.5C242.755,376.739,239.397,373.381,235.255,373.381z M243.005,365.881
		c-1.381,0-2.5,1.119-2.5,2.5c0,1.381,1.119,2.5,2.5,2.5s2.5-1.119,2.5-2.5C245.505,367,244.386,365.881,243.005,365.881z"/>
	<path id="icon:1" style="fill:#e7c296;" d="M75.311,332.881c-7.659,0-13.894,6.236-13.894,13.894s6.236,13.894,13.894,13.894
		s13.894-6.236,13.894-13.894S82.969,332.881,75.311,332.881z M63.449,346.775c0-6.541,5.321-11.861,11.861-11.861v23.722
		C68.77,358.637,63.449,353.316,63.449,346.775z M75.311,393.881c-7.661,0-13.894-6.233-13.894-13.894
		c0-7.661,6.233-13.894,13.894-13.894s13.894,6.233,13.894,13.894C89.205,387.648,82.972,393.881,75.311,393.881z M75.311,368.125
		c-6.54,0-11.861,5.321-11.861,11.861c0,6.54,5.321,11.861,11.861,11.861c6.54,0,11.861-5.321,11.861-11.861
		C87.172,373.446,81.851,368.125,75.311,368.125z M109.199,366.092c-7.659,0-13.894,6.236-13.894,13.894
		c0,7.659,6.236,13.894,13.894,13.894s13.894-6.236,13.894-13.894C123.094,372.328,116.858,366.092,109.199,366.092z
		 M109.199,391.848v-23.722c6.541,0,11.861,5.321,11.861,11.861S115.74,391.848,109.199,391.848z M95.305,346.775
		c0-7.674,6.221-13.894,13.894-13.894s13.894,6.221,13.894,13.894c0,7.674-6.221,13.894-13.894,13.894
		S95.305,354.449,95.305,346.775z"/>
</g>
<g id="row2">
	<path id="icon:4_4_" style="fill:#e7c296;" d="M521.975,212.726c-1.083,1.877-1.943,3.775-2.623,5.557
		c5.596-7.529,15.579-16.757,30.903-16.757v3.164c-11.575,0-19.858,5.8-25.285,11.727c5.968-4.229,14.379-8.036,25.285-8.036v3.164
		c-8.729,0-15.781,2.721-21.143,6.021c5.214-1.592,12.096-2.721,21.143-2.721v3.164c-17.894,0-26.644,4.524-30.627,7.804h13.104
		l-13.126,9.955l5.012,16.113l-13.126-9.955l-13.126,9.955l5.012-16.113l-13.126-9.955h16.227l5.012-16.113l3.579,11.505
		c2.91-10.071,11.363-27.323,35.182-27.323v3.164C537.437,197.045,527.922,202.317,521.975,212.726z"/>
	<path id="icon:3_5_" style="fill:#e7c296;" d="M388.845,244.851c-5.45,2.03-10.84,3.7-15.9,4.95c5.31,3.48,12.12,4.47,18.51,2.08
		c6.4-2.38,10.9-7.6,12.62-13.7C399.435,240.551,394.275,242.821,388.845,244.851z M355.695,218.741l-0.42-7.05l-5.71,4.16
		l-7.05,0.42l4.16,5.7l0.41,7.05l5.71-4.15l7.05-0.42L355.695,218.741z M412.765,197.431l-0.42-7.05l-5.71,4.15l-7.04,0.42
		l4.15,5.71l0.42,7.05l5.71-4.15l7.05-0.42L412.765,197.431z M423.065,218.481c-1.49-4.02-11.4-4.28-24.6-1.3
		c-0.24-0.25-0.49-0.48-0.74-0.7c-5.51-4.97-13.54-6.76-20.97-3.99c-7.43,2.78-12.32,9.39-13.23,16.76
		c-0.04,0.34-0.08,0.69-0.11,1.03c-11.92,6.39-19.22,13.07-17.72,17.09c2.13,5.7,21.18,3.85,42.54-4.13
		C409.605,235.261,425.195,224.181,423.065,218.481z M355.855,240.831c-0.83-2.22,2.13-5.61,7.5-9.16c0,0.33,0.01,0.66,0.02,0.99
		c0.09,2.11,0.51,4.24,1.29,6.33c0.41,1.11,0.92,2.17,1.5,3.16c0.15,0.27,0.31,0.53,0.48,0.8
		C360.735,243.611,356.645,242.961,355.855,240.831z M404.345,228.861c-0.05-0.3-0.1-0.61-0.16-0.91c-0.21-1.13-0.52-2.26-0.94-3.37
		c-0.78-2.09-1.86-3.97-3.18-5.62c-0.21-0.26-0.42-0.52-0.65-0.77c6.39-0.84,10.87-0.22,11.7,2.01
		C411.905,222.321,409.245,225.501,404.345,228.861z"/>
	<path id="icon:2_2_" style="fill:#e7c296;" d="M255.355,255.823l-0.325-7.553l-5.266-12.131h6.141v-1.809h-6.926l-10.127-23.339
		c0.812-1.348,1.271-2.931,1.271-4.613c0-4.044-2.651-7.472-6.313-8.63v-10.367h-5.411v10.367c-3.661,1.158-6.312,4.586-6.312,8.63
		c0,1.809,0.532,3.492,1.443,4.903L213.53,234.33h-7.223v1.809h6.439l-5.266,12.131l-0.325,7.553l-3.4,7.834l1.65,0.724l1.533-3.537
		l2.516-5.798l8.206-18.906h11.84v3.537c0,0.859,0.703,1.565,1.56,1.565h0.09c0.857,0,1.56-0.706,1.56-1.565v-3.537h12.138
		l8.206,18.906l2.516,5.798l1.533,3.537l1.65-0.724L255.355,255.823z M231.106,202.759c1.993,0,3.607,1.619,3.607,3.618
		c0,1.999-1.614,3.618-3.607,3.618s-3.607-1.619-3.607-3.618C227.499,204.379,229.113,202.759,231.106,202.759z M232.711,234.33
		v-3.356c0-0.859-0.703-1.565-1.56-1.565h-0.09c-0.857,0-1.56,0.706-1.56,1.565v3.356h-11.047l8.594-19.811v-0.063
		c0.009,0.009,0.018,0.009,0.027,0.009l-0.027,0.054v9.951h8.116v-10.656l0.225,0.525l8.675,19.992H232.711z"/>
	<path id="icon:1_2_" style="fill:#e7c296;" d="M117.61,206.613c-7.027-13.668-23.746-19.253-37.601-12.716l-4.22-8.016
		l-3.334,1.752l0.735,1.394c-10.775,6.499-17.435,18.236-17.435,30.783c0,17.718,12.942,32.497,29.915,35.455v4.719h-7.338v5.897
		h25.997v-5.897H96.21v-4.427c3.617-0.414,7.121-1.385,10.474-2.873l0.857,1.639l3.334-1.743l-4.408-8.459
		c6.16-3.523,10.719-9.118,12.904-15.9C121.698,221.025,121.076,213.348,117.61,206.613z M114.408,206.67l-5.265,2.675
		c-2.016-3.532-4.691-6.547-7.808-8.939l4.71-2.402C109.406,200.133,112.298,203.053,114.408,206.67z M87.573,207.405l10.936-5.567
		c3.268,2.261,6.056,5.237,8.11,8.788l-13.78,7.018L87.573,207.405z M96.869,231.669l-10.898,5.548
		c-3.259-2.242-6.047-5.218-8.11-8.788l13.743-6.989L96.869,231.669z M90.314,218.925l-13.752,6.989
		c-1.695-3.758-2.496-7.743-2.411-11.69l10.898-5.539L90.314,218.925z M71.325,215.666c0.122,3.9,1.017,7.818,2.722,11.529
		l-5.303,2.694c-1.686-3.749-2.421-7.781-2.176-11.803L71.325,215.666z M67.001,214.686c0.188-0.989,0.443-1.988,0.763-2.967
		c1.394-4.295,3.834-8.063,7.093-11.021c-1.969,3.674-3.137,7.668-3.447,11.746L67.001,214.686z M75.337,229.71
		c2.025,3.542,4.691,6.565,7.808,8.949l-4.738,2.402c-3.353-2.119-6.254-5.03-8.364-8.647L75.337,229.71z M85.793,240.477
		c3.494,2.119,7.422,3.523,11.557,4.098c-5.435,1.093-11.03,0.386-15.937-1.874L85.793,240.477z M88.825,238.932l9.334-4.747
		l4.022,7.818C97.435,242.125,92.866,241.032,88.825,238.932z M94.128,220.159l13.79-7.018c1.686,3.74,2.477,7.733,2.411,11.69
		l-10.945,5.558L94.128,220.159z M92.179,193.991c3.758,0,7.469,0.819,10.851,2.383l-4.352,2.204
		c-3.447-2.101-7.309-3.513-11.369-4.116C88.92,194.142,90.559,193.991,92.179,193.991z M95.673,200.114l-9.391,4.776l-4.088-7.941
		C86.979,196.845,91.595,197.976,95.673,200.114z M83.758,206.171l-9.334,4.747c0.64-4.484,2.43-8.817,5.312-12.566L83.758,206.171z
		 M91.934,251.102c-17.35,0-31.469-14.035-31.469-31.292c0-10.804,5.689-20.921,14.92-26.61l1.328,2.534
		c-5.52,3.532-9.598,8.817-11.633,15.118c-2.336,7.197-1.705,14.873,1.752,21.608c5.039,9.796,15.061,15.448,25.441,15.448
		c3.626,0,7.29-0.688,10.804-2.138l1.422,2.732C100.543,250.226,96.314,251.102,91.934,251.102z M104.763,240.844l-4.078-7.941
		l9.391-4.776C109.434,232.668,107.654,237.057,104.763,240.844z M116.687,227.355c-1.366,4.211-3.739,7.912-6.904,10.842
		c1.884-3.636,2.986-7.573,3.278-11.586l4.389-2.232C117.262,225.377,117.007,226.376,116.687,227.355z M117.883,220.988
		l-4.738,2.411c-0.132-3.919-1.017-7.837-2.703-11.539l5.256-2.675C117.384,212.934,118.119,216.965,117.883,220.988z"/>
</g>
<g id="row1">
	<path id="icon:4_2_" style="fill:#e7c296;" d="M545.203,92.881c0,11.485-9.379,20.796-20.948,20.796s-20.948-9.311-20.948-20.796
		s9.379-20.796,20.948-20.796S545.203,81.396,545.203,92.881z M524.255,118.962l11.127,7.919l4.314-12.896l13.684-0.092
		l-4.132-12.949l11.008-8.062l-11.008-8.062l4.132-12.949l-13.684-0.092l-4.314-12.896L524.255,66.8l-11.127-7.919l-4.314,12.896
		l-13.684,0.092l4.132,12.949l-11.008,8.062l11.008,8.062l-4.132,12.949l13.684,0.092l4.314,12.896L524.255,118.962z
		 M514.551,122.531l-3.761-11.245l-11.937-0.081l3.604-11.292l-9.601-7.032l9.601-7.032l-3.604-11.292l11.937-0.081l3.761-11.245
		l9.704,6.906l9.704-6.906l3.76,11.245l11.937,0.081l-3.604,11.292l9.601,7.032l-9.601,7.032l3.604,11.292l-11.937,0.081
		l-3.76,11.245l-9.704-6.906L514.551,122.531z"/>
	<path id="icon:3_3_" style="fill:#e7c296;" d="M420.528,57.132c-3.31-0.053-6.042,2.593-6.095,5.903
		c-0.037,2.31,1.241,4.34,3.144,5.371l-10.621,15.566c-0.279-0.055-0.569-0.079-0.859-0.084c-1.75-0.028-3.342,0.707-4.451,1.889
		l-16.882-11.862c0.332-0.725,0.514-1.522,0.528-2.362c0.053-3.31-2.593-6.042-5.903-6.095s-6.042,2.593-6.095,5.903
		c-0.028,1.72,0.667,3.281,1.82,4.39l-13.762,19.952c-0.744-0.352-1.571-0.555-2.441-0.569c-3.31-0.053-6.042,2.593-6.095,5.903
		s2.593,6.042,5.903,6.095c1.65,0.026,3.15-0.62,4.258-1.682l16.558,10.217c-0.023,0.18-0.036,0.359-0.039,0.549
		c-0.053,3.31,2.583,6.042,5.903,6.095c3.31,0.053,6.042-2.593,6.095-5.903c0.02-1.22-0.322-2.365-0.947-3.326l13.314-17.599
		c0.636,0.25,1.324,0.391,2.044,0.403c3.31,0.053,6.042-2.593,6.095-5.903c0.037-2.31-1.241-4.34-3.144-5.371l10.621-15.566
		c0.279,0.054,0.569,0.079,0.859,0.084c3.31,0.053,6.042-2.593,6.095-5.903S423.838,57.185,420.528,57.132z M389.525,111.601
		c-1.01-0.77-2.25-1.22-3.6-1.22c-2.4,0-4.47,1.41-5.43,3.44l-16.1-9.57c0.39-0.79,0.61-1.68,0.61-2.62c0-1.72-0.72-3.27-1.89-4.36
		l13.44-20.17c0.75,0.34,1.58,0.53,2.45,0.53c1.75,0,3.33-0.76,4.42-1.96l17.07,11.6c-0.32,0.72-0.49,1.52-0.49,2.36
		c0,1.87,0.86,3.54,2.2,4.64L389.525,111.601z"/>
	<path id="icon:2_3_" style="fill:#e7c296;" d="M242.755,90.881c0,4.142-3.358,7.5-7.5,7.5s-7.5-3.358-7.5-7.5
		c0-4.142,3.358-7.5,7.5-7.5S242.755,86.739,242.755,90.881z M273.755,90.881c0,21.23-17.27,38.5-38.5,38.5s-38.5-17.27-38.5-38.5
		c0-15.52,9.23-28.93,22.5-35.01c0.01-1.66,1.34-2.99,3-2.99c0.9,0,1.7,0.39,2.25,1.02c3.41-0.99,7.02-1.52,10.75-1.52
		C256.485,52.381,273.755,69.651,273.755,90.881z M270.755,90.881c0-19.57-15.93-35.5-35.5-35.5c-3.54,0-6.96,0.52-10.18,1.49
		c-0.4,1.17-1.51,2.01-2.82,2.01c-0.55,0-1.06-0.15-1.5-0.4c-12.37,5.56-21,17.99-21,32.4c0,19.57,15.93,35.5,35.5,35.5
		S270.755,110.451,270.755,90.881z M253.255,90.881c0,9.93-8.07,18-18,18c-8.2,0-15.13-5.51-17.29-13.02
		c-1.52-0.14-2.71-1.42-2.71-2.98c0-1.32,0.84-2.43,2.02-2.83c0.44-9.55,8.33-17.17,17.98-17.17
		C245.185,72.881,253.255,80.951,253.255,90.881z M251.255,90.881c0-8.82-7.18-16-16-16c-8.54,0-15.55,6.74-15.98,15.18v0.01
		c1.16,0.41,1.98,1.51,1.98,2.81c0,1.05-0.54,1.97-1.35,2.51c1.95,6.63,8.1,11.49,15.35,11.49
		C244.075,106.881,251.255,99.701,251.255,90.881z M263.255,90.881c0,13.39-9.45,24.62-22.03,27.35c-0.16,1.49-1.43,2.65-2.97,2.65
		c-1.31,0-2.42-0.83-2.82-2h-0.18c-15.44,0-28-12.56-28-28c0-7.73,3.15-14.75,8.24-19.82c-0.15-0.36-0.24-0.76-0.24-1.18
		c0-1.66,1.34-3,3-3c0.65,0,1.24,0.21,1.73,0.55c4.39-2.88,9.64-4.55,15.27-4.55C250.695,62.881,263.255,75.441,263.255,90.881z
		 M261.255,90.881c0-14.34-11.66-26-26-26c-5.2,0-10.05,1.54-14.12,4.19c0.08,0.26,0.12,0.53,0.12,0.81c0,1.66-1.34,3-3,3
		c-0.51,0-0.99-0.13-1.41-0.35c-4.68,4.71-7.59,11.19-7.59,18.35c0,14.34,11.66,26,26,26h0.18c0.4-1.17,1.51-2,2.82-2
		c1.07,0,2.01,0.56,2.54,1.4C252.485,113.741,261.255,103.321,261.255,90.881z"/>
	<path id="icon:1_3_" style="fill:#e7c296;" d="M115.245,74.581l-1.18,3.47l-9.47-3.23l1.94-5.68l-35.5-12.1l0.65-1.89l-14.2-4.84
		l-7.74,22.71l14.19,4.85l0.65-1.9l16.47,5.62c-1.68,0.93-2.82,2.73-2.82,4.79c0,1.42,0.54,2.72,1.43,3.69l-15.32,30.81h4.46
		l3.56-7.15h21.66l3.26,7.15h4.4l-14-30.67c0.95-0.98,1.55-2.34,1.55-3.83c0-0.76-0.16-1.49-0.44-2.15l11.28,3.84l1.94-5.68
		l9.46,3.23l-1.07,3.16l6.62,2.25l4.85-14.19L115.245,74.581z M92.655,110.731h-18.79l9.39-18.88c0.16,0.02,0.32,0.03,0.48,0.03
		c0.11,0,0.21,0,0.31-0.02L92.655,110.731z"/>
</g>
</svg>
