<svg width="25" height="24" viewBox="0 0 25 24" fill="none" xmlns="http://www.w3.org/2000/svg">
<path d="M13.9258 12.828L14.3203 13.4857L16.3516 12.363L16.1226 11.9812C16.6203 10.9755 16.6711 9.89023 16.1383 9.00148C15.6047 8.11273 14.6008 7.60648 13.4437 7.51573L13.225 7.15198L11.1937 8.27473L11.5859 8.92798L5.39453 12.351L5.78749 13.0065L2.50078 14.8237L2.11249 14.1757L1.43515 14.55L3.77421 18.4485L4.45156 18.075L4.06015 17.4232L7.34687 15.606L7.73359 16.251L9.37499 15.3435V18.6645L4.59999 23.2485L5.69609 23.25L9.37499 19.7257V23.25H10.1562V19.7115L13.8469 23.25L14.9461 23.2485L10.1562 18.651V14.9122L13.9258 12.828ZM15.4609 9.37573C15.7656 9.88348 15.8156 10.5097 15.6266 11.1487L13.9453 8.34523C14.6211 8.50798 15.1539 8.86348 15.4609 9.37573ZM12.9383 8.17648L15.2844 12.087L14.607 12.4612L14.6023 12.4537L12.2609 8.55073L12.9383 8.17648ZM11.9758 9.57823L13.5352 12.1777L8.11952 15.1717L6.56328 12.5775L11.9758 9.57823ZM3.67031 16.773L2.89062 15.474L6.17734 13.6567L6.95703 14.9557L3.67031 16.773Z" fill="#E7C296"/>
<path d="M16.0156 2.25C16.2312 2.25 16.4062 2.418 16.4062 2.625C16.4062 2.832 16.2312 3 16.0156 3C15.8 3 15.625 2.832 15.625 2.625C15.625 2.418 15.8 2.25 16.0156 2.25ZM16.0156 1.5C15.3687 1.5 14.8438 2.004 14.8438 2.625C14.8438 3.246 15.3687 3.75 16.0156 3.75C16.6625 3.75 17.1875 3.246 17.1875 2.625C17.1875 2.004 16.6625 1.5 16.0156 1.5ZM21.4844 6C21.7 6 21.875 6.168 21.875 6.375C21.875 6.582 21.7 6.75 21.4844 6.75C21.2688 6.75 21.0938 6.582 21.0938 6.375C21.0938 6.168 21.2688 6 21.4844 6ZM21.4844 5.25C20.8375 5.25 20.3125 5.754 20.3125 6.375C20.3125 6.996 20.8375 7.5 21.4844 7.5C22.1313 7.5 22.6562 6.996 22.6562 6.375C22.6562 5.754 22.1313 5.25 21.4844 5.25ZM22.6562 3H21.875V3.75H22.6562V3ZM7.03125 2.25H6.25V3H7.03125V2.25ZM20.3125 9.75H19.5312V10.5H20.3125V9.75ZM21.875 12.75H21.0938V13.5H21.875V12.75ZM24.2188 10.5H23.4375V11.25H24.2188V10.5ZM17.9688 6.75H17.1875V7.5H17.9688V6.75ZM10.1562 3.75H9.375V4.5H10.1562V3.75ZM11.7188 1.5H10.9375V2.25H11.7188V1.5ZM20.3125 0.75H19.5312V1.5H20.3125V0.75ZM14.8438 4.5H14.0625V5.25H14.8438V4.5Z" fill="#E7C296"/>
</svg>
