<?xml version="1.0" encoding="utf-8"?>
<!-- Generator: Adobe Illustrator 17.1.0, SVG Export Plug-In . SVG Version: 6.00 Build 0)  -->
<!DOCTYPE svg PUBLIC "-//W3C//DTD SVG 1.1//EN" "http://www.w3.org/Graphics/SVG/1.1/DTD/svg11.dtd">
<svg version="1.1" id="Layer_1" xmlns="http://www.w3.org/2000/svg" xmlns:xlink="http://www.w3.org/1999/xlink" x="0px" y="0px"
	 viewBox="0 0 100 100" enable-background="new 0 0 100 100" xml:space="preserve">
<g>
	<path fill="#231F20" d="M78.3,58c4.4-15.6-4.7-31.9-20.3-36.3c-2.6-0.7-5.3-1.1-8-1.1c-13.1,0-24.7,8.8-28.3,21.4
		c-2.1,7.6-1.2,15.5,2.6,22.4c3.8,6.9,10.1,11.8,17.7,14c2.6,0.7,5.3,1.1,8,1.1C63.1,79.4,74.7,70.6,78.3,58z"/>
	<path fill="#231F20" d="M49.6,17.8c0.8,0,1.4-0.6,1.4-1.4V6.4C51,5.6,50.3,5,49.6,5c-0.8,0-1.4,0.6-1.4,1.4v10.1
		C48.2,17.2,48.8,17.8,49.6,17.8z"/>
	<path fill="#231F20" d="M31.7,21.8c0.2,0.4,0.7,0.7,1.2,0.7c0.2,0,0.5-0.1,0.7-0.2c0.6-0.4,0.9-1.2,0.5-1.9L29,11.7
		c-0.4-0.7-1.2-0.9-1.9-0.5c-0.6,0.4-0.9,1.2-0.5,1.9L31.7,21.8z"/>
	<path fill="#231F20" d="M11.3,29.7l8.7,5.1c0.2,0.1,0.4,0.2,0.7,0.2c0.5,0,0.9-0.2,1.2-0.7c0.4-0.6,0.2-1.5-0.5-1.9l-8.7-5.1
		c-0.6-0.4-1.5-0.2-1.9,0.5C10.5,28.5,10.7,29.3,11.3,29.7z"/>
	<path fill="#231F20" d="M17.8,50.4c0-0.8-0.6-1.4-1.4-1.4H6.4C5.6,49,5,49.7,5,50.4c0,0.8,0.6,1.4,1.4,1.4h10.1
		C17.2,51.8,17.8,51.2,17.8,50.4z"/>
	<path fill="#231F20" d="M20.5,65.9L11.7,71c-0.6,0.4-0.9,1.2-0.5,1.9c0.2,0.4,0.7,0.7,1.2,0.7c0.2,0,0.5-0.1,0.7-0.2l8.7-5.1
		c0.6-0.4,0.9-1.2,0.5-1.9C22,65.8,21.1,65.6,20.5,65.9z"/>
	<path fill="#231F20" d="M34.3,78.1c-0.6-0.4-1.5-0.2-1.9,0.5l-5.1,8.7c-0.4,0.6-0.2,1.5,0.5,1.9c0.2,0.1,0.4,0.2,0.7,0.2
		c0.5,0,0.9-0.2,1.2-0.7l5.1-8.7C35.1,79.3,34.9,78.4,34.3,78.1z"/>
	<path fill="#231F20" d="M50.4,82.2c-0.8,0-1.4,0.6-1.4,1.4v10.1c0,0.8,0.6,1.4,1.4,1.4c0.8,0,1.4-0.6,1.4-1.4V83.5
		C51.8,82.8,51.2,82.2,50.4,82.2z"/>
	<path fill="#231F20" d="M68.3,78.2c-0.4-0.7-1.2-0.9-1.9-0.5c-0.6,0.4-0.9,1.2-0.5,1.9l5.1,8.7c0.2,0.4,0.7,0.7,1.2,0.7
		c0.2,0,0.5-0.1,0.7-0.2c0.6-0.4,0.9-1.2,0.5-1.9L68.3,78.2z"/>
	<path fill="#231F20" d="M88.7,70.3l-8.7-5.1c-0.6-0.4-1.5-0.2-1.9,0.5c-0.4,0.6-0.2,1.5,0.5,1.9l8.7,5.1c0.2,0.1,0.4,0.2,0.7,0.2
		c0.5,0,0.9-0.2,1.2-0.7C89.5,71.5,89.3,70.7,88.7,70.3z"/>
	<path fill="#231F20" d="M93.6,48.2H83.5c-0.8,0-1.4,0.6-1.4,1.4c0,0.8,0.6,1.4,1.4,1.4h10.1c0.8,0,1.4-0.6,1.4-1.4
		C95,48.8,94.4,48.2,93.6,48.2z"/>
	<path fill="#231F20" d="M78.8,34.2c0.2,0,0.5-0.1,0.7-0.2l8.7-5.1c0.6-0.4,0.9-1.2,0.5-1.9c-0.4-0.7-1.2-0.9-1.9-0.5l-8.7,5.1
		c-0.6,0.4-0.9,1.2-0.5,1.9C77.9,34,78.4,34.2,78.8,34.2z"/>
	<path fill="#231F20" d="M65.7,21.9c0.2,0.1,0.4,0.2,0.7,0.2c0.5,0,0.9-0.2,1.2-0.7l5.1-8.7c0.4-0.6,0.2-1.5-0.5-1.9
		c-0.6-0.4-1.5-0.2-1.9,0.5l-5.1,8.7C64.9,20.7,65.1,21.6,65.7,21.9z"/>
</g>
</svg>
