<?xml version="1.0" encoding="utf-8"?>
<!-- Generator: Adobe Illustrator 18.0.0, SVG Export Plug-In . SVG Version: 6.00 Build 0)  -->
<!DOCTYPE svg PUBLIC "-//W3C//DTD SVG 1.1//EN" "http://www.w3.org/Graphics/SVG/1.1/DTD/svg11.dtd">
<svg version="1.1" id="Layer_1" xmlns="http://www.w3.org/2000/svg" xmlns:xlink="http://www.w3.org/1999/xlink" x="0px" y="0px"
	 viewBox="0 0 48 48" enable-background="new 0 0 48 48" xml:space="preserve">
<g>
	<path fill="#e7c296" d="M24,36.4c-6.8,0-12.4-5.6-12.4-12.4c0-6.8,5.6-12.4,12.4-12.4c6.8,0,12.4,5.6,12.4,12.4
		C36.4,30.8,30.8,36.4,24,36.4z M24,13.6c-5.7,0-10.4,4.7-10.4,10.4S18.3,34.4,24,34.4S34.4,29.7,34.4,24S29.7,13.6,24,13.6z"/>
	<g>
		<g>
			<rect x="23" y="1" fill="#e7c296" width="2" height="8.2"/>
			<rect x="23" y="38.8" fill="#e7c296" width="2" height="8.2"/>
		</g>
		<g>
			<rect x="38.8" y="23" fill="#e7c296" width="8.2" height="2"/>
			<rect x="1" y="23" fill="#e7c296" width="8.2" height="2"/>
		</g>
	</g>
	<g>
		<g>
			
				<rect x="36.4" y="6.5" transform="matrix(0.7071 0.7071 -0.7071 0.7071 18.4496 -23.341)" fill="#e7c296" width="2" height="8.2"/>
			
				<rect x="9.6" y="33.3" transform="matrix(0.7071 0.7071 -0.7071 0.7071 29.5504 3.4588)" fill="#e7c296" width="2" height="8.2"/>
		</g>
		<g>
			
				<rect x="33.3" y="36.4" transform="matrix(0.7071 0.7071 -0.7071 0.7071 37.3999 -15.4915)" fill="#e7c296" width="8.2" height="2"/>
			
				<rect x="6.5" y="9.6" transform="matrix(0.7071 0.7071 -0.7071 0.7071 10.6001 -4.3907)" fill="#e7c296" width="8.2" height="2"/>
		</g>
	</g>
</g>
</svg>
