<?xml version="1.0" encoding="utf-8"?>
<!-- Generator: Adobe Illustrator 18.0.0, SVG Export Plug-In . SVG Version: 6.00 Build 0)  -->
<!DOCTYPE svg PUBLIC "-//W3C//DTD SVG 1.1//EN" "http://www.w3.org/Graphics/SVG/1.1/DTD/svg11.dtd">
<svg version="1.1" id="Layer_1" xmlns="http://www.w3.org/2000/svg" xmlns:xlink="http://www.w3.org/1999/xlink" x="0px" y="0px"
	 viewBox="0 0 48 48" enable-background="new 0 0 48 48" xml:space="preserve">
<g>
	<g>
		<path fill="#e7c296" d="M10.2,23.7H6.4v-0.3C2.6,22.5,0,19,0,14.9c0-4.8,3.7-8.7,8.3-8.7c0.4,0,0.8,0,1.1,0.1
			C10.6,2.6,14.8,0,19.7,0c2.9,0,5.6,0.9,7.7,2.5l-1.2,1.6c-1.7-1.3-4-2.1-6.5-2.1c-4.4,0-8.1,2.4-8.5,5.6L11,8.8L9.9,8.4
			c-0.5-0.2-1-0.2-1.6-0.2C4.9,8.2,2,11.3,2,14.9c0,3.4,2.3,6.3,5.5,6.7l0.7,0.1h2V23.7z"/>
		<path fill="#e7c296" d="M41.6,26.4h-25c-4.8-0.1-8.5-3.2-8.5-7c0-3.9,3.8-7,8.5-7c0.4,0,0.8,0,1.3,0.1c-0.1-0.5-0.2-1-0.2-1.5
			c0-4.6,4.8-8.3,10.6-8.3c4.9,0,9.1,2.6,10.3,6.3c0.4-0.1,0.8-0.1,1.1-0.1c4.6,0,8.3,3.9,8.3,8.7c0,4.1-2.6,7.6-6.4,8.5V26.4z
			 M16.6,14.4c-3.5,0-6.5,2.3-6.5,5c0,2.7,2.9,4.9,6.5,5h23.2l0.7-0.1c3.2-0.4,5.5-3.3,5.5-6.7c0-3.6-2.9-6.7-6.3-6.7
			c-0.5,0-1.1,0.1-1.6,0.2L37,11.5l-0.2-1.2c-0.4-3.2-4.1-5.6-8.5-5.6c-4.7,0-8.6,2.8-8.6,6.3c0,0.8,0.2,1.6,0.7,2.4l1.2,2.2
			l-2.4-0.8C18.3,14.6,17.4,14.4,16.6,14.4z"/>
	</g>
	<path fill="none" stroke="#010101" stroke-width="2" stroke-miterlimit="10" d="M12.1,30.2"/>
	<rect x="12.8" y="31.6" transform="matrix(0.9796 0.2012 -0.2012 0.9796 7.0319 -2.0904)" fill="#e7c296" width="2" height="4"/>
	<rect x="9.3" y="43" transform="matrix(0.9745 0.2246 -0.2246 0.9745 10.3814 -1.1736)" fill="#e7c296" width="2" height="4"/>
	<rect x="25.8" y="31.6" transform="matrix(0.9796 0.2012 -0.2012 0.9796 7.2977 -4.7058)" fill="#e7c296" width="2" height="4"/>
	<rect x="22.3" y="43" transform="matrix(0.9745 0.2246 -0.2246 0.9745 10.7135 -4.0931)" fill="#e7c296" width="2" height="4"/>
	<rect x="38.8" y="31.6" transform="matrix(0.9796 0.2012 -0.2012 0.9796 7.5635 -7.3212)" fill="#e7c296" width="2" height="4"/>
	<rect x="35.3" y="43" transform="matrix(0.9745 0.2246 -0.2246 0.9745 11.0455 -7.0126)" fill="#e7c296" width="2" height="4"/>
</g>
</svg>
