<?xml version="1.0" encoding="utf-8"?>
<!-- Generator: Adobe Illustrator 18.0.0, SVG Export Plug-In . SVG Version: 6.00 Build 0)  -->
<!DOCTYPE svg PUBLIC "-//W3C//DTD SVG 1.1//EN" "http://www.w3.org/Graphics/SVG/1.1/DTD/svg11.dtd">
<svg version="1.1" id="Layer_1" xmlns="http://www.w3.org/2000/svg" xmlns:xlink="http://www.w3.org/1999/xlink" x="0px" y="0px"
	 viewBox="0 0 48 48" enable-background="new 0 0 48 48" xml:space="preserve">
<g>
	<g>
		<path fill="#e7c296" d="M10.2,22.6H6.4v-0.3C2.7,21.4,0,18.1,0,14.2c0-4.6,3.7-8.3,8.3-8.3c0.4,0,0.8,0,1.1,0.1
			c1.1-3.5,5.3-6,10.3-6c2.8,0,5.6,0.8,7.7,2.4L26.2,4c-1.8-1.3-4.1-2-6.5-2c-4.3,0-8.1,2.3-8.5,5.2l-0.1,1l-1-0.2
			C9.5,8,8.9,7.9,8.3,7.9C4.8,7.9,2,10.7,2,14.2c0,3.2,2.4,5.9,5.5,6.3l0.7,0.1h2V22.6z"/>
		<path fill="#e7c296" d="M41.6,25h-25c-4.8,0-8.5-2.9-8.5-6.6c0-3.7,3.8-6.7,8.5-6.7c0.4,0,0.9,0,1.3,0.1c-0.1-0.5-0.2-0.9-0.2-1.4
			c0-4.4,4.8-7.9,10.6-7.9c4.9,0,9.1,2.5,10.2,5.9c0.4-0.1,0.8-0.1,1.2-0.1c4.6,0,8.3,3.7,8.3,8.3c0,3.9-2.7,7.2-6.4,8.1V25z
			 M16.6,13.7c-3.5,0-6.5,2.2-6.5,4.7c0,2.5,2.9,4.6,6.5,4.6h23.2l0.7-0.1c3.2-0.4,5.5-3.2,5.5-6.3c0-3.5-2.8-6.3-6.3-6.3
			c-0.5,0-1.1,0.1-1.6,0.2L37,10.9l-0.2-1.2c-0.4-2.9-4.2-5.2-8.5-5.2c-4.7,0-8.6,2.6-8.6,5.9c0,0.7,0.2,1.5,0.6,2.2l1.3,2l-2.3-0.5
			C18.5,13.9,17.5,13.7,16.6,13.7z"/>
	</g>
	<polygon fill="#e7c296" points="31.3,47.5 29.5,46.5 34.2,37.9 26.1,40.6 32.3,28.5 34.1,29.5 30.1,37.2 38.4,34.3 	"/>
	<polygon fill="#e7c296" points="12.4,47.5 10.6,46.5 15.3,37.9 7.1,40.6 13.4,28.5 15.2,29.5 11.1,37.2 19.5,34.3 	"/>
</g>
</svg>
