<?xml version="1.0" encoding="utf-8"?>
<!-- Generator: Adobe Illustrator 18.0.0, SVG Export Plug-In . SVG Version: 6.00 Build 0)  -->
<!DOCTYPE svg PUBLIC "-//W3C//DTD SVG 1.1//EN" "http://www.w3.org/Graphics/SVG/1.1/DTD/svg11.dtd">
<svg version="1.1" id="Layer_1" xmlns="http://www.w3.org/2000/svg" xmlns:xlink="http://www.w3.org/1999/xlink" x="0px" y="0px"
	 viewBox="0 0 48 48" enable-background="new 0 0 48 48" xml:space="preserve">
<g>
	<path fill="#e7c296" d="M13.7,30.8H9.6c-5.3,0-9.6-4.3-9.6-9.6c0-5.3,4.3-9.6,9.6-9.6h3.2c1.3-4.4,5.3-7.4,10-7.4
		c4.7,0,8.7,3,10,7.4c5.1,0.3,9.1,4.5,9.1,9.6c0,0.3,0,0.5-0.1,0.8c0,0.1,0,0.2,0,0.3l0,0.1c-0.2,1.8-1,3.6-2.1,4.9l-1.5-1.3
		c0.9-1.1,1.5-2.5,1.7-3.8c0-0.2,0-0.3,0.1-0.5c0-0.2,0-0.3,0-0.5c0-4.2-3.4-7.6-7.6-7.6h-1.1L31,12.8c-0.8-3.9-4.2-6.6-8.2-6.6
		c-4,0-7.4,2.7-8.2,6.6l-0.2,0.8H9.6C5.4,13.6,2,17,2,21.2c0,4.2,3.4,7.6,7.6,7.6h4.1V30.8z"/>
	<path fill="#e7c296" d="M39.4,43.9H19.2c-4.8,0-8.7-3.9-8.7-8.7s3.9-8.7,8.7-8.7h2.9c1.1-3.9,4.7-6.6,8.9-6.6
		c4.2,0,7.7,2.7,8.9,6.6c4.5,0.3,8.1,4.1,8.2,8.7C48.1,40,44.2,43.9,39.4,43.9z M19.2,28.5c-3.7,0-6.7,3-6.7,6.7s3,6.7,6.7,6.7h20.2
		c3.7,0,6.7-3,6.7-6.7c-0.1-3.7-3.1-6.7-6.8-6.7h-1l-0.2-0.8c-0.7-3.4-3.6-5.8-7.1-5.8c-3.5,0-6.5,2.4-7.1,5.8l-0.2,0.8H19.2z"/>
</g>
</svg>
