<?xml version="1.0" encoding="iso-8859-1"?>
<!-- Generator: Adobe Illustrator 19.0.1, SVG Export Plug-In . SVG Version: 6.00 Build 0)  -->
<svg version="1.1" id="astronomy" xmlns="http://www.w3.org/2000/svg" xmlns:xlink="http://www.w3.org/1999/xlink" x="0px" y="0px"
	 viewBox="0 0 128 128" style="enable-background:new 0 0 128 128;" xml:space="preserve">
<g id="row3" style="display:none;">
	<path id="icon:4_1_" style="display:inline;fill:#595959;" d="M65,66.075v-17.5h23.76v-16.17H65v-1.2c0-0.552-0.448-1-1-1l0,0
		c-0.552,0-1,0.448-1,1v34.87c-16.22,0.52-29.25,13.88-29.25,30.22v1.5h60.5v-1.5C94.25,79.955,81.22,66.595,65,66.075z
		 M36.79,94.795c0.78-14.33,12.69-25.75,27.21-25.75s26.43,11.42,27.21,25.75H36.79z M75,78.565c0,1.853-2.099,3.355-4.688,3.355
		s-4.688-1.502-4.688-3.355s2.099-3.355,4.688-3.355S75,76.712,75,78.565z M80.062,87.835c-2.175,0-3.938,1.091-3.938,2.438
		s1.763,2.438,3.938,2.438S84,91.619,84,90.273S82.237,87.835,80.062,87.835z M46.088,83.718c-2.342,2.393-3.301,5.252-2.141,6.387
		c1.159,1.135,3.998,0.115,6.34-2.278c2.342-2.393,3.301-5.252,2.141-6.387C51.269,80.305,48.43,81.325,46.088,83.718z"/>
	<path id="icon:3" style="display:inline;fill:#595959;" d="M92.822,60.619c4.853,9.06,0.858,33.784-32.783,33.784
		c-25.114,0-35.669-30.472-35.922-31.461c0.414,0.736,13.96,24.412,37.061,24.412c27.057,0,27.632-19.146,23.665-26.62
		c-3.967-7.486-11.66-12.982-23.711-10.13c-0.126,0.035-0.253,0.057-0.368,0.092c0.828-0.092,1.679-0.138,2.541-0.138
		c9.739,0,17.674,5.841,17.938,13.12c1.368,5.968-2.231,14.316-13.212,16.926c-15.753,3.737-28.816-3.45-33.991-13.224
		c-5.186-9.774-1.874-33.784,30.622-33.784c29.644,0,38.969,30.472,39.222,31.461c-0.425-0.736-14.236-24.424-38.211-24.424
		c-27.057,0-27.632,19.146-23.665,26.631c3.128,5.91,8.578,9.855,16.65,9.855c-7.67-1.541-13.316-6.796-13.316-13.051
		c-0.356-7.578,3.266-14.247,13.488-16.673C74.573,43.659,87.597,50.866,92.822,60.619z"/>
	<path id="icon:3_2_" style="fill:#595959;" d="M178,202.518c-0.418,1.116-0.797,2.231-1.165,3.337
		c-0.886,2.61-1.793,5.3-3.187,7.74l-0.05,0.09c-4.851,7.262-10.698,11.367-18.417,12.911c-1.534,0.259-3.167,0.379-4.801,0.379
		c-1.614,0-3.217-0.12-4.711-0.369c-6.952-1.604-11.315-4.324-14.672-9.115c-2.998-4.503-3.695-9.235-2.082-14.076
		c0.538-1.614,1.554-3.138,2.54-4.612l0.12-0.149c3.586-4.104,8.048-5.081,12.251-2.68l0.169,0.1l0.139,0.139
		c0.608,0.608,1.853,1.863,1.853,3.427c0,0.418-0.06,0.837-0.139,1.255c0.209,0.04,0.398,0.06,0.558,0.06
		c0.12-0.01,0.428-0.13,1.136-0.817c0.359-0.727,0.677-1.405,0.677-1.943c0-1.365,0-2.112-0.398-3.307
		c-0.349-1.056-1.076-2.231-1.902-3.088c-1.295-0.867-2.53-1.674-4.124-2.072c-1.663-0.408-3.835-0.428-5.618-0.428
		c-2.072,0.438-3.755,1.285-5.926,2.58c-1.733,1.315-3.476,3.058-4.791,4.792c-1.295,2.182-2.211,4.911-3.088,7.551
		c-1.863,11.187,4.223,24.427,22.042,28.88L143.686,236c-13.765-3.437-27.222-15.042-24.244-32.396l0.06-0.209
		c0.946-2.869,1.932-5.828,3.436-8.328l0.09-0.129c1.494-1.992,3.496-3.995,5.488-5.489l0.13-0.09c2.47-1.484,4.512-2.5,7.082-3.018
		l0.289-0.03c1.982,0,4.442,0,6.504,0.518c2.142,0.538,3.695,1.574,5.189,2.57l0.229,0.189c1.185,1.185,2.201,2.819,2.719,4.363
		c0.548,1.644,0.548,2.789,0.548,4.244c0,1.295-0.588,2.471-1.106,3.497l-0.1,0.219l-0.179,0.169
		c-0.598,0.608-1.853,1.863-3.416,1.863c-0.428,0-0.867-0.06-1.295-0.149c-0.04,0.209-0.06,0.398-0.06,0.558
		c0,0.12,0.12,0.428,0.807,1.136c0.727,0.369,1.404,0.677,1.942,0.677c1.365,0,2.122,0,3.307-0.389
		c1.056-0.359,2.231-1.076,3.088-1.903c0.867-1.305,1.673-2.54,2.072-4.134c0.418-1.654,0.428-3.835,0.428-5.618
		c-0.438-2.072-1.285-3.756-2.58-5.927c-1.315-1.733-3.048-3.477-4.791-4.782c-2.171-1.295-4.781-2.172-7.55-3.098
		c-11.186-1.863-24.423,4.224-28.875,22.046L110,201.631c3.436-13.757,15.03-27.216,32.391-24.247l0.219,0.06
		c2.859,0.956,5.817,1.943,8.317,3.437l0.129,0.09c1.992,1.494,3.994,3.497,5.498,5.489l0.08,0.13
		c1.484,2.471,2.5,4.513,3.018,7.083l0.03,0.299c0,1.972,0,4.433-0.518,6.495c-0.538,2.142-1.574,3.696-2.57,5.19l-0.179,0.229
		c-1.195,1.195-2.829,2.212-4.363,2.72c-1.644,0.548-2.799,0.548-4.253,0.548c-1.295,0-2.46-0.578-3.496-1.096l-0.219-0.11
		l-0.169-0.169c-0.608-0.608-1.853-1.853-1.853-3.427c0-0.428,0.06-0.867,0.149-1.295c-0.199-0.04-0.378-0.06-0.528-0.06
		c-0.12,0.01-0.428,0.13-1.155,0.837c-1.544,2.849-0.827,5.708,2.072,8.288c1.285,0.857,2.6,1.723,3.805,2.132
		c3.984,1.325,7.729,0.757,11.445-1.723c4.163-2.909,6.454-6.615,7.869-12.781c0.428-2.56,0.428-5.738-0.01-8.388
		c-1.375-6.834-5.06-12.074-11.594-16.447c-2.171-1.235-4.602-2.052-7.162-2.919c-1.136-0.379-2.281-0.767-3.426-1.205l1.046-2.789
		c1.116,0.418,2.231,0.787,3.337,1.166c2.6,0.877,5.299,1.783,7.739,3.178l0.08,0.06c7.271,4.842,11.375,10.689,12.919,18.42
		c0.508,3.048,0.508,6.505,0.01,9.504c-1.604,6.963-4.323,11.317-9.114,14.674c-4.512,3.009-9.233,3.696-14.084,2.082
		c-1.604-0.538-3.128-1.554-4.602-2.53l-0.149-0.12c-4.104-3.586-5.08-8.059-2.679-12.253l0.1-0.179l0.139-0.139
		c0.608-0.598,1.853-1.853,3.417-1.853c0.418,0,0.837,0.06,1.255,0.139c0.04-0.189,0.06-0.359,0.06-0.508
		c0-0.13-0.129-0.438-0.837-1.166c-2.849-1.534-5.707-0.827-8.277,2.072c-0.857,1.285-1.733,2.61-2.132,3.815
		c-1.325,3.975-0.767,7.72,1.713,11.446c2.908,4.154,6.624,6.445,12.779,7.87c2.57,0.428,5.737,0.428,8.397-0.02
		c6.823-1.365,12.072-5.051,16.435-11.586c1.235-2.182,2.052-4.602,2.918-7.173c0.388-1.136,0.777-2.281,1.205-3.427L178,202.518z"
		/>
	<path id="icon:2" style="display:inline;fill:#595959;" d="M64,97.167c-18.472,0-33.5-14.879-33.5-33.167S45.528,30.833,64,30.833
		S97.5,45.712,97.5,64S82.472,97.167,64,97.167z M64,33.833c-16.818,0-30.5,13.533-30.5,30.167S47.182,94.167,64,94.167
		S94.5,80.634,94.5,64S80.818,33.833,64,33.833z M59,79c0,2.761-2.239,5-5,5s-5-2.239-5-5s2.239-5,5-5S59,76.239,59,79z M44,50
		c-2.761,0-5,2.239-5,5s2.239,5,5,5s5-2.239,5-5S46.761,50,44,50z M65,40c-2.761,0-5,2.239-5,5s2.239,5,5,5c2.761,0,5-2.239,5-5
		S67.761,40,65,40z M62,57c-2.761,0-5,2.239-5,5c0,2.761,2.239,5,5,5c2.761,0,5-2.239,5-5C67,59.239,64.761,57,62,57z M71,72.5
		c-4.142,0-7.5,3.358-7.5,7.5s3.358,7.5,7.5,7.5s7.5-3.358,7.5-7.5S75.142,72.5,71,72.5z M78.75,65c-1.381,0-2.5,1.119-2.5,2.5
		s1.119,2.5,2.5,2.5s2.5-1.119,2.5-2.5S80.131,65,78.75,65z"/>
	<path id="icon:1" style="display:inline;fill:#595959;" d="M47.056,33.5c-7.659,0-13.894,6.236-13.894,13.894
		s6.236,13.894,13.894,13.894S60.95,55.053,60.95,47.394S54.714,33.5,47.056,33.5z M35.194,47.394
		c0-6.541,5.321-11.861,11.861-11.861v23.722C40.515,59.256,35.194,53.935,35.194,47.394z M47.056,94.5
		c-7.661,0-13.894-6.233-13.894-13.894s6.233-13.894,13.894-13.894S60.95,72.944,60.95,80.606S54.717,94.5,47.056,94.5z
		 M47.056,68.744c-6.54,0-11.861,5.321-11.861,11.861c0,6.54,5.321,11.861,11.861,11.861s11.861-5.321,11.861-11.861
		C58.917,74.065,53.596,68.744,47.056,68.744z M80.944,66.711c-7.659,0-13.894,6.236-13.894,13.894S73.286,94.5,80.944,94.5
		s13.894-6.236,13.894-13.894S88.603,66.711,80.944,66.711z M80.944,92.467V68.744c6.541,0,11.861,5.321,11.861,11.861
		C92.806,87.146,87.485,92.467,80.944,92.467z M67.05,47.394c0-7.674,6.221-13.894,13.894-13.894s13.894,6.221,13.894,13.894
		s-6.221,13.894-13.894,13.894S67.05,55.068,67.05,47.394z"/>
</g>
<g id="row2" style="display:none;">
	<path id="icon:4_4_" style="display:inline;fill:#595959;" d="M65.72,53.845c-1.083,1.877-1.943,3.775-2.623,5.557
		C68.694,51.873,78.676,42.645,94,42.645v3.164c-11.575,0-19.858,5.8-25.285,11.727C74.683,53.307,83.094,49.5,94,49.5v3.164
		c-8.729,0-15.781,2.721-21.143,6.021c5.214-1.592,12.096-2.721,21.143-2.721v3.164c-17.894,0-26.644,4.524-30.627,7.804h13.104
		l-13.126,9.955L68.365,93l-13.126-9.955L42.113,93l5.012-16.113L34,66.932h16.227l5.012-16.113l3.579,11.505
		C61.727,52.252,70.181,35,94,35v3.164C81.182,38.164,71.667,43.436,65.72,53.845z"/>
	<path id="icon:3_5_" style="display:inline;fill:#595959;" d="M69.958,87.065c-5.45,2.03-10.84,3.7-15.9,4.95
		c5.31,3.48,12.12,4.47,18.51,2.08c6.4-2.38,10.9-7.6,12.62-13.7C80.548,82.765,75.388,85.035,69.958,87.065z M36.808,60.955
		l-0.42-7.05l-5.71,4.16l-7.05,0.42l4.16,5.7l0.41,7.05l5.71-4.15l7.05-0.42L36.808,60.955z M93.878,39.645l-0.42-7.05l-5.71,4.15
		l-7.04,0.42l4.15,5.71l0.42,7.05l5.71-4.15l7.05-0.42L93.878,39.645z M104.178,60.695c-1.49-4.02-11.4-4.28-24.6-1.3
		c-0.24-0.25-0.49-0.48-0.74-0.7c-5.51-4.97-13.54-6.76-20.97-3.99c-7.43,2.78-12.32,9.39-13.23,16.76
		c-0.04,0.34-0.08,0.69-0.11,1.03c-11.92,6.39-19.22,13.07-17.72,17.09c2.13,5.7,21.18,3.85,42.54-4.13
		C90.718,77.475,106.308,66.395,104.178,60.695z M36.968,83.045c-0.83-2.22,2.13-5.61,7.5-9.16c0,0.33,0.01,0.66,0.02,0.99
		c0.09,2.11,0.51,4.24,1.29,6.33c0.41,1.11,0.92,2.17,1.5,3.16c0.15,0.27,0.31,0.53,0.48,0.8
		C41.848,85.825,37.758,85.175,36.968,83.045z M85.458,71.075c-0.05-0.3-0.1-0.61-0.16-0.91c-0.21-1.13-0.52-2.26-0.94-3.37
		c-0.78-2.09-1.86-3.97-3.18-5.62c-0.21-0.26-0.42-0.52-0.65-0.77c6.39-0.84,10.87-0.22,11.7,2.01
		C93.018,64.535,90.358,67.715,85.458,71.075z"/>
	<path id="icon:2_2_" style="display:inline;fill:#595959;" d="M88.1,93.942l-0.325-7.553l-5.266-12.131h6.141v-1.809h-6.926
		L71.598,49.11c0.812-1.348,1.271-2.931,1.271-4.613c0-4.044-2.651-7.472-6.313-8.63V25.5h-5.411v10.367
		c-3.661,1.158-6.313,4.586-6.313,8.63c0,1.809,0.532,3.492,1.443,4.903L46.275,72.449h-7.223v1.809h6.439l-5.266,12.131
		L39.9,93.942l-3.4,7.834l1.65,0.724l1.533-3.537l2.516-5.798l8.206-18.906h11.84v3.537c0,0.859,0.703,1.565,1.56,1.565h0.09
		c0.857,0,1.56-0.706,1.56-1.565v-3.537h12.138l8.206,18.906l2.516,5.798l1.533,3.537l1.65-0.724L88.1,93.942z M63.851,40.878
		c1.993,0,3.607,1.619,3.607,3.618c0,1.999-1.614,3.618-3.607,3.618c-1.993,0-3.607-1.619-3.607-3.618
		C60.244,42.498,61.858,40.878,63.851,40.878z M65.456,72.449v-3.356c0-0.859-0.703-1.565-1.56-1.565h-0.09
		c-0.857,0-1.56,0.706-1.56,1.565v3.356H51.199l8.594-19.811v-0.063c0.009,0.009,0.018,0.009,0.027,0.009l-0.027,0.054v9.951h8.116
		V51.933l0.225,0.525l8.675,19.992H65.456z"/>
	<path id="icon:1_2_" style="display:inline;fill:#595959;" d="M93.355,44.732C86.329,31.065,69.61,25.479,55.754,32.016L51.534,24
		L48.2,25.752l0.735,1.394C38.159,33.646,31.5,45.382,31.5,57.929c0,17.718,12.942,32.497,29.915,35.455v4.719h-7.338V104h25.997
		v-5.897h-8.119v-4.427c3.617-0.414,7.121-1.385,10.474-2.873l0.857,1.639l3.334-1.743l-4.408-8.459
		c6.16-3.523,10.719-9.118,12.904-15.9C97.443,59.144,96.821,51.467,93.355,44.732z M90.153,44.789l-5.265,2.675
		c-2.016-3.532-4.691-6.547-7.808-8.939l4.71-2.402C85.151,38.252,88.043,41.172,90.153,44.789z M63.318,45.524l10.936-5.567
		c3.268,2.261,6.056,5.237,8.11,8.788l-13.78,7.018L63.318,45.524z M72.614,69.788l-10.898,5.548
		c-3.259-2.242-6.047-5.218-8.11-8.788l13.743-6.989L72.614,69.788z M66.059,57.044l-13.752,6.989
		c-1.695-3.758-2.496-7.743-2.411-11.69l10.898-5.539L66.059,57.044z M47.07,53.785c0.122,3.9,1.017,7.818,2.722,11.529
		l-5.303,2.694c-1.686-3.749-2.421-7.781-2.176-11.803L47.07,53.785z M42.746,52.805c0.188-0.989,0.443-1.988,0.763-2.967
		c1.394-4.295,3.834-8.063,7.093-11.021c-1.969,3.674-3.137,7.668-3.447,11.746L42.746,52.805z M51.082,67.829
		c2.025,3.542,4.691,6.565,7.808,8.949l-4.738,2.402c-3.353-2.119-6.254-5.03-8.364-8.647L51.082,67.829z M61.538,78.596
		c3.494,2.119,7.422,3.523,11.557,4.098c-5.435,1.093-11.03,0.386-15.937-1.874L61.538,78.596z M64.57,77.051l9.334-4.747
		l4.022,7.818C73.18,80.244,68.611,79.151,64.57,77.051z M69.873,58.278l13.79-7.017c1.686,3.74,2.477,7.733,2.411,11.69
		l-10.945,5.558L69.873,58.278z M67.924,32.11c3.758,0,7.469,0.819,10.851,2.383l-4.352,2.204
		c-3.447-2.101-7.309-3.513-11.369-4.116C64.665,32.261,66.304,32.11,67.924,32.11z M71.418,38.233l-9.391,4.776l-4.088-7.941
		C62.724,34.964,67.34,36.095,71.418,38.233z M59.503,44.29l-9.334,4.747c0.64-4.484,2.43-8.817,5.312-12.566L59.503,44.29z
		 M67.679,89.221c-17.35,0-31.469-14.035-31.469-31.292c0-10.804,5.689-20.921,14.92-26.61l1.328,2.534
		c-5.52,3.532-9.598,8.817-11.633,15.118c-2.336,7.197-1.705,14.873,1.752,21.608c5.039,9.796,15.061,15.448,25.441,15.448
		c3.626,0,7.29-0.688,10.804-2.138l1.422,2.732C76.288,88.345,72.059,89.221,67.679,89.221z M80.508,78.963l-4.078-7.941
		l9.391-4.776C85.179,70.787,83.399,75.176,80.508,78.963z M92.432,65.474c-1.366,4.211-3.739,7.912-6.904,10.842
		c1.884-3.636,2.986-7.573,3.278-11.586l4.389-2.232C93.007,63.496,92.752,64.495,92.432,65.474z M93.628,59.107l-4.738,2.411
		c-0.132-3.918-1.017-7.837-2.703-11.539l5.256-2.675C93.129,51.053,93.864,55.084,93.628,59.107z"/>
</g>
<g id="row1">
	<path id="icon:4_2_" style="fill:#595959;" d="M84.948,64c0,11.485-9.379,20.796-20.948,20.796S43.052,75.485,43.052,64
		S52.431,43.204,64,43.204S84.948,52.515,84.948,64z M64,90.081L75.127,98l4.314-12.896l13.684-0.092l-4.132-12.949L100,64
		l-11.008-8.062l4.132-12.949l-13.684-0.092L75.127,30L64,37.919L52.873,30l-4.314,12.896l-13.684,0.092l4.132,12.949L28,64
		l11.008,8.062l-4.132,12.949l13.684,0.092L52.873,98L64,90.081z M54.296,93.65l-3.761-11.245l-11.937-0.081l3.604-11.292L32.602,64
		l9.601-7.032l-3.604-11.292l11.937-0.081l3.761-11.245L64,41.256l9.704-6.906l3.761,11.245l11.937,0.081l-3.604,11.292L95.398,64
		l-9.601,7.032l3.604,11.292l-11.937,0.081L73.704,93.65L64,86.744L54.296,93.65z"/>
	<path id="icon:3_3_" style="display:none;fill:#595959;" d="M94.905,31.41c-3.31-0.053-6.042,2.593-6.095,5.903
		c-0.037,2.31,1.241,4.34,3.144,5.371L81.333,58.25c-0.279-0.055-0.569-0.079-0.859-0.084c-1.75-0.028-3.342,0.707-4.451,1.889
		L59.141,48.193c0.332-0.725,0.514-1.522,0.528-2.362c0.053-3.31-2.593-6.042-5.903-6.095c-3.31-0.053-6.042,2.593-6.095,5.903
		c-0.028,1.72,0.667,3.281,1.82,4.39L35.729,69.981c-0.744-0.352-1.571-0.555-2.441-0.569c-3.31-0.053-6.042,2.593-6.095,5.903
		c-0.053,3.31,2.593,6.042,5.903,6.095c1.65,0.026,3.15-0.62,4.257-1.682l16.558,10.217c-0.023,0.18-0.036,0.359-0.039,0.549
		c-0.053,3.31,2.583,6.042,5.903,6.095c3.31,0.053,6.042-2.593,6.095-5.903c0.02-1.22-0.322-2.365-0.947-3.326l13.314-17.599
		c0.636,0.25,1.324,0.391,2.044,0.403c3.31,0.053,6.042-2.593,6.095-5.903c0.037-2.31-1.241-4.34-3.144-5.371l10.621-15.566
		c0.279,0.054,0.569,0.079,0.859,0.084c3.31,0.053,6.042-2.593,6.095-5.903C100.861,34.196,98.214,31.464,94.905,31.41z
		 M63.902,85.879c-1.01-0.77-2.25-1.22-3.6-1.22c-2.4,0-4.47,1.41-5.43,3.44l-16.1-9.57c0.39-0.79,0.61-1.68,0.61-2.62
		c0-1.72-0.72-3.27-1.89-4.36l13.44-20.17c0.75,0.34,1.58,0.53,2.45,0.53c1.75,0,3.33-0.76,4.42-1.96l17.07,11.6
		c-0.32,0.72-0.49,1.52-0.49,2.36c0,1.87,0.86,3.54,2.2,4.64L63.902,85.879z"/>
	<path id="icon:2_3_" style="display:none;fill:#595959;" d="M71.5,64c0,4.142-3.358,7.5-7.5,7.5s-7.5-3.358-7.5-7.5
		s3.358-7.5,7.5-7.5S71.5,59.858,71.5,64z M102.5,64c0,21.23-17.27,38.5-38.5,38.5S25.5,85.23,25.5,64
		c0-15.52,9.23-28.93,22.5-35.01c0.01-1.66,1.34-2.99,3-2.99c0.9,0,1.7,0.39,2.25,1.02c3.41-0.99,7.02-1.52,10.75-1.52
		C85.23,25.5,102.5,42.77,102.5,64z M99.5,64c0-19.57-15.93-35.5-35.5-35.5c-3.54,0-6.96,0.52-10.18,1.49
		C53.42,31.16,52.31,32,51,32c-0.55,0-1.06-0.15-1.5-0.4c-12.37,5.56-21,17.99-21,32.4c0,19.57,15.93,35.5,35.5,35.5
		S99.5,83.57,99.5,64z M82,64c0,9.93-8.07,18-18,18c-8.2,0-15.13-5.51-17.29-13.02C45.19,68.84,44,67.56,44,66
		c0-1.32,0.84-2.43,2.02-2.83C46.46,53.62,54.35,46,64,46C73.93,46,82,54.07,82,64z M80,64c0-8.82-7.18-16-16-16
		c-8.54,0-15.55,6.74-15.98,15.18v0.01C49.18,63.6,50,64.7,50,66c0,1.05-0.54,1.97-1.35,2.51C50.6,75.14,56.75,80,64,80
		C72.82,80,80,72.82,80,64z M92,64c0,13.39-9.45,24.62-22.03,27.35C69.81,92.84,68.54,94,67,94c-1.31,0-2.42-0.83-2.82-2H64
		c-15.44,0-28-12.56-28-28c0-7.73,3.15-14.75,8.24-19.82C44.09,43.82,44,43.42,44,43c0-1.66,1.34-3,3-3c0.65,0,1.24,0.21,1.73,0.55
		C53.12,37.67,58.37,36,64,36C79.44,36,92,48.56,92,64z M90,64c0-14.34-11.66-26-26-26c-5.2,0-10.05,1.54-14.12,4.19
		C49.96,42.45,50,42.72,50,43c0,1.66-1.34,3-3,3c-0.51,0-0.99-0.13-1.41-0.35C40.91,50.36,38,56.84,38,64c0,14.34,11.66,26,26,26
		h0.18c0.4-1.17,1.51-2,2.82-2c1.07,0,2.01,0.56,2.54,1.4C81.23,86.86,90,76.44,90,64z"/>
	<path id="icon:1_3_" style="display:none;fill:#595959;" d="M93.435,52.985l-1.18,3.47l-9.47-3.23l1.94-5.68l-35.5-12.1l0.65-1.89
		l-14.2-4.84l-7.74,22.71l14.19,4.85l0.65-1.9l16.47,5.62c-1.68,0.93-2.82,2.73-2.82,4.79c0,1.42,0.54,2.72,1.43,3.69l-15.32,30.81
		h4.46l3.56-7.15h21.66l3.26,7.15h4.4l-14-30.67c0.95-0.98,1.55-2.34,1.55-3.83c0-0.76-0.16-1.49-0.44-2.15l11.28,3.84l1.94-5.68
		l9.46,3.23l-1.07,3.16l6.62,2.25l4.85-14.19L93.435,52.985z M70.845,89.135h-18.79l9.39-18.88c0.16,0.02,0.32,0.03,0.48,0.03
		c0.11,0,0.21,0,0.31-0.02L70.845,89.135z"/>
</g>
</svg>
